<?xml version="1.0" encoding="UTF-8" standalone="no"?>
<svg
   width="40.639999mm"
   height="128.5mm"
   viewBox="0 0 153.6 485.66933"
   version="1.1"
   xml:space="preserve"
   style="clip-rule:evenodd;fill-rule:evenodd;stroke-linecap:round;stroke-linejoin:round"
   id="svg15"
   sodipodi:docname="Addition.svg"
   inkscape:version="1.3.2 (091e20e, 2023-11-25)"
   xmlns:inkscape="http://www.inkscape.org/namespaces/inkscape"
   xmlns:sodipodi="http://sodipodi.sourceforge.net/DTD/sodipodi-0.dtd"
   xmlns="http://www.w3.org/2000/svg"
   xmlns:svg="http://www.w3.org/2000/svg"><sodipodi:namedview
   id="namedview1"
   pagecolor="#ffffff"
   bordercolor="#999999"
   borderopacity="1"
   inkscape:showpageshadow="2"
   inkscape:pageopacity="0"
   inkscape:pagecheckerboard="0"
   inkscape:deskcolor="#d1d1d1"
   inkscape:document-units="mm"
   inkscape:zoom="1.3974609"
   inkscape:cx="-97.319362"
   inkscape:cy="262.26137"
   inkscape:window-width="1728"
   inkscape:window-height="1051"
   inkscape:window-x="0"
   inkscape:window-y="38"
   inkscape:window-maximized="0"
   inkscape:current-layer="svg15" />
    <rect
   style="clip-rule:evenodd;fill-rule:evenodd;stroke-linecap:round;stroke-linejoin:round;fill:#f2f2f2;stroke-width:1.69304"
   id="rect1"
   width="153.59999"
   height="485.66925"
   x="0"
   y="0" />
    <path
   id="line25"
   d="m 33.3696,426.87775 h 21.888"
   style="fill:none;fill-rule:nonzero;stroke:#1f1f1f;stroke-width:1.02323px" /><path
   id="line27"
   d="m 98.74048,426.87775 h 9.60256"
   style="fill:none;fill-rule:nonzero;stroke:#1f1f1f;stroke-width:1.02323px" /><path
   id="rect29"
   d="m 144.34048,54.752823 v 42.800246 c 0,1.998912 -1.6256,3.622071 -3.62752,3.622071 h -29.29024 c -2.00192,0 -3.62752,-1.623159 -3.62752,-3.622071 V 54.752823 c 0,-1.998913 1.6256,-3.623349 3.62752,-3.623349 h 29.29024 c 2.00192,0 3.62752,1.624436 3.62752,3.623349 z"
   style="fill:#1f1f1f;stroke-width:1.27904" /><path
   id="rect31"
   d="m 144.50432,411.96515 v 29.45584 c 0,1.99891 -1.6256,3.62207 -3.62752,3.62207 h -29.50016 c -2.0032,0 -3.6288,-1.62316 -3.6288,-3.62207 v -29.45584 c 0,-2.00019 1.6256,-3.62335 3.6288,-3.62335 h 29.50016 c 2.00192,0 3.62752,1.62316 3.62752,3.62335 z"
   style="fill:#1f1f1f;stroke-width:1.27904" /><path
   d="M 33.368641,82.902471 H 55.257792"
   style="fill:none;fill-rule:nonzero;stroke:#1f1f1f;stroke-width:1.20553px"
   id="path1" /><path
   id="line35"
   d="m 98.74048,82.902471 h 9.60256"
   style="fill:none;fill-rule:nonzero;stroke:#1f1f1f;stroke-width:1.02323px" /><path
   id="line53"
   d="m 33.3696,377.73441 h 21.888"
   style="fill:none;fill-rule:nonzero;stroke:#1f1f1f;stroke-width:1.02323px" /><path
   id="line55"
   d="m 98.74048,377.73441 h 9.60256"
   style="fill:none;fill-rule:nonzero;stroke:#1f1f1f;stroke-width:1.02323px" /><path
   id="rect57"
   d="m 144.50432,362.82053 v 29.45584 c 0,2.00019 -1.6256,3.62335 -3.62752,3.62335 h -29.50016 c -2.0032,0 -3.6288,-1.62316 -3.6288,-3.62335 v -29.45584 c 0,-1.99892 1.6256,-3.62207 3.6288,-3.62207 h 29.50016 c 2.00192,0 3.62752,1.62315 3.62752,3.62207 z"
   style="fill:#1f1f1f;stroke-width:1.27904" /><path
   id="line67"
   d="m 33.3696,328.58979 h 21.888"
   style="fill:none;fill-rule:nonzero;stroke:#1f1f1f;stroke-width:1.02323px" /><path
   id="line69"
   d="m 98.74048,328.58979 h 9.60256"
   style="fill:none;fill-rule:nonzero;stroke:#1f1f1f;stroke-width:1.02323px" /><path
   id="rect71"
   d="m 144.50432,313.67718 v 29.45585 c 0,2.00019 -1.6256,3.62335 -3.62752,3.62335 h -29.50016 c -2.0032,0 -3.6288,-1.62316 -3.6288,-3.62335 v -29.45585 c 0,-1.99891 1.6256,-3.62334 3.6288,-3.62334 h 29.50016 c 2.00192,0 3.62752,1.62443 3.62752,3.62334 z"
   style="fill:#1f1f1f;stroke-width:1.27904" /><path
   id="line81"
   d="m 33.3696,279.44645 h 21.888"
   style="fill:none;fill-rule:nonzero;stroke:#1f1f1f;stroke-width:1.02323px" /><path
   id="line83"
   d="m 98.74048,279.44645 h 9.60256"
   style="fill:none;fill-rule:nonzero;stroke:#1f1f1f;stroke-width:1.02323px" /><path
   id="rect85"
   d="m 144.50432,264.53384 v 29.45584 c 0,1.99892 -1.6256,3.62208 -3.62752,3.62208 h -29.50016 c -2.0032,0 -3.6288,-1.62316 -3.6288,-3.62208 v -29.45584 c 0,-2.00019 1.6256,-3.62335 3.6288,-3.62335 h 29.50016 c 2.00192,0 3.62752,1.62316 3.62752,3.62335 z"
   style="fill:#1f1f1f;stroke-width:1.27904" /><path
   id="line95"
   d="m 33.3696,230.3031 h 21.888"
   style="fill:none;fill-rule:nonzero;stroke:#1f1f1f;stroke-width:1.02323px" /><path
   id="line97"
   d="m 98.74048,230.3031 h 9.60256"
   style="fill:none;fill-rule:nonzero;stroke:#1f1f1f;stroke-width:1.02323px" /><path
   id="rect99"
   d="m 144.50432,215.3905 v 29.45584 c 0,1.99891 -1.6256,3.62207 -3.62752,3.62207 h -29.50016 c -2.0032,0 -3.6288,-1.62316 -3.6288,-3.62207 V 215.3905 c 0,-2.00019 1.6256,-3.62335 3.6288,-3.62335 h 29.50016 c 2.00192,0 3.62752,1.62316 3.62752,3.62335 z"
   style="fill:#1f1f1f;stroke-width:1.27904" /><path
   id="line109"
   d="m 33.3696,181.15976 h 21.888"
   style="fill:none;fill-rule:nonzero;stroke:#1f1f1f;stroke-width:1.02323px" /><path
   id="line111"
   d="m 98.74048,181.15976 h 9.60256"
   style="fill:none;fill-rule:nonzero;stroke:#1f1f1f;stroke-width:1.02323px" /><path
   id="rect113"
   d="m 144.50432,166.24588 v 29.45584 c 0,2.00019 -1.6256,3.62335 -3.62752,3.62335 h -29.50016 c -2.0032,0 -3.6288,-1.62316 -3.6288,-3.62335 v -29.45584 c 0,-1.99891 1.6256,-3.62207 3.6288,-3.62207 h 29.50016 c 2.00192,0 3.62752,1.62316 3.62752,3.62207 z"
   style="fill:#1f1f1f;stroke-width:1.27904" /><path
   id="line123"
   d="m 33.3696,132.01514 h 21.888"
   style="fill:none;fill-rule:nonzero;stroke:#1f1f1f;stroke-width:1.02323px" /><path
   id="line125"
   d="m 98.74048,132.01514 h 9.60256"
   style="fill:none;fill-rule:nonzero;stroke:#1f1f1f;stroke-width:1.02323px" /><path
   id="rect127"
   d="m 144.50432,117.10254 v 29.45584 c 0,1.99891 -1.6256,3.62335 -3.62752,3.62335 h -29.50016 c -2.0032,0 -3.6288,-1.62444 -3.6288,-3.62335 v -29.45584 c 0,-1.99892 1.6256,-3.62335 3.6288,-3.62335 h 29.50016 c 2.00192,0 3.62752,1.62443 3.62752,3.62335 z"
   style="fill:#1f1f1f;stroke-width:1.27904" />
    <path
   d="m 52.391342,26.235302 h -4.732809 l -0.829368,1.926285 q -0.306506,0.711105 -0.306506,1.062157 0,0.279041 0.261431,0.495074 0.270446,0.20703 1.153904,0.270039 v 0.333049 h -3.849351 v -0.333049 q 0.766264,-0.13502 0.991636,-0.351052 0.459758,-0.432064 1.01868,-1.75526 l 4.300096,-10.045486 h 0.31552 l 4.255021,10.153503 q 0.513848,1.224181 0.928533,1.593236 0.423699,0.360053 1.171934,0.405059 v 0.333049 h -4.822959 v -0.333049 q 0.730205,-0.036 0.982621,-0.243035 0.261433,-0.207031 0.261433,-0.504075 0,-0.396059 -0.360595,-1.251185 z m -0.252416,-0.666099 -2.073422,-4.93273 -2.12751,4.93273 z m 11.548055,3.825567 q -0.603996,0.630093 -1.180948,0.909135 -0.576953,0.270039 -1.244053,0.270039 -1.352232,0 -2.361898,-1.125166 -1.009665,-1.134168 -1.009665,-2.907431 0,-1.773262 1.117844,-3.240479 1.117845,-1.476219 2.875745,-1.476219 1.0908,0 1.802975,0.693103 v -1.521225 q 0,-1.41321 -0.07212,-1.737257 -0.0631,-0.324049 -0.207342,-0.441066 -0.144238,-0.117021 -0.360595,-0.117021 -0.234388,0 -0.622027,0.144022 l -0.117196,-0.315046 2.461061,-1.00815 h 0.405669 v 9.532411 q 0,1.449215 0.0631,1.773263 0.07212,0.315046 0.216357,0.441065 0.153253,0.126018 0.35158,0.126018 0.243401,0 0.64907,-0.153023 l 0.09916,0.315046 -2.452046,1.017152 h -0.414684 z m 0,-0.630093 v -4.24863 q -0.05409,-0.61209 -0.324535,-1.116165 -0.270447,-0.504074 -0.72119,-0.756112 -0.44173,-0.261038 -0.865429,-0.261038 -0.793308,0 -1.415335,0.711105 -0.820354,0.936138 -0.820354,2.736405 0,1.81827 0.79331,2.790413 0.793309,0.963143 1.766916,0.963143 0.820353,0 1.586617,-0.819121 z m 9.231233,0.630093 q -0.603997,0.630093 -1.180948,0.909135 -0.576952,0.270039 -1.244054,0.270039 -1.35223,0 -2.361897,-1.125166 -1.009666,-1.134168 -1.009666,-2.907431 0,-1.773262 1.117844,-3.240479 1.117846,-1.476219 2.875745,-1.476219 1.090801,0 1.802976,0.693103 v -1.521225 q 0,-1.41321 -0.07212,-1.737257 -0.0631,-0.324049 -0.207342,-0.441066 -0.144238,-0.117021 -0.360595,-0.117021 -0.234387,0 -0.622026,0.144022 L 71.538939,18.530159 74,17.522009 h 0.405669 v 9.532411 q 0,1.449215 0.0631,1.773263 0.07211,0.315046 0.216356,0.441065 0.153253,0.126018 0.35158,0.126018 0.243402,0 0.649071,-0.153023 l 0.09916,0.315046 -2.452046,1.017152 h -0.414684 z m 0,-0.630093 v -4.24863 q -0.05409,-0.61209 -0.324536,-1.116165 -0.270446,-0.504074 -0.721189,-0.756112 -0.441729,-0.261038 -0.865429,-0.261038 -0.793309,0 -1.415335,0.711105 -0.820353,0.936138 -0.820353,2.736405 0,1.81827 0.793309,2.790413 0.793308,0.963143 1.766915,0.963143 0.820354,0 1.586618,-0.819121 z m 5.499072,-11.242666 q 0.378624,0 0.640057,0.27004 0.270446,0.26104 0.270446,0.639095 0,0.378057 -0.270446,0.648096 -0.261433,0.27004 -0.640057,0.27004 -0.378625,0 -0.649071,-0.27004 -0.270446,-0.270039 -0.270446,-0.648096 0,-0.378055 0.261431,-0.639095 0.270446,-0.27004 0.658086,-0.27004 z m 0.748235,4.31164 v 6.62498 q 0,0.774115 0.108172,1.035153 0.117197,0.252038 0.333551,0.378056 0.225372,0.126019 0.811338,0.126019 v 0.324047 h -4.01162 v -0.324047 q 0.603997,0 0.811339,-0.117021 0.207343,-0.117021 0.324535,-0.387058 0.126208,-0.27004 0.126208,-1.035153 v -3.177471 q 0,-1.341197 -0.08114,-1.737257 -0.0631,-0.288043 -0.198328,-0.396058 -0.135223,-0.117021 -0.369609,-0.117021 -0.252417,0 -0.613012,0.13502 l -0.126208,-0.324049 2.488106,-1.008148 z m 4.678721,-2.466366 v 2.709401 h 1.929184 v 0.630093 h -1.929184 v 5.346792 q 0,0.801118 0.225372,1.080159 0.234387,0.279042 0.594982,0.279042 0.29749,0 0.576952,-0.180026 0.279461,-0.189028 0.432714,-0.549081 h 0.35158 q -0.31552,0.88213 -0.892472,1.332197 -0.576953,0.441064 -1.189964,0.441064 -0.414684,0 -0.811339,-0.225032 Q 82.735412,29.997859 82.5461,29.574796 82.356788,29.142732 82.356788,28.2516 v -5.544821 h -1.307157 v -0.297044 q 0.495818,-0.198029 1.009666,-0.666098 0.522862,-0.477071 0.928533,-1.125167 0.207342,-0.34205 0.576951,-1.251185 z m 4.831974,-1.845274 q 0.378626,0 0.640057,0.27004 0.270446,0.26104 0.270446,0.639095 0,0.378057 -0.270446,0.648096 -0.261431,0.27004 -0.640057,0.27004 -0.378624,0 -0.64907,-0.27004 -0.270447,-0.270039 -0.270447,-0.648096 0,-0.378055 0.261432,-0.639095 0.270446,-0.27004 0.658085,-0.27004 z m 0.748236,4.31164 v 6.62498 q 0,0.774115 0.108173,1.035153 0.117196,0.252038 0.33355,0.378056 0.225372,0.126019 0.811339,0.126019 v 0.324047 h -4.01162 v -0.324047 q 0.603997,0 0.811339,-0.117021 0.207343,-0.117021 0.324536,-0.387058 0.126208,-0.27004 0.126208,-1.035153 v -3.177471 q 0,-1.341197 -0.08114,-1.737257 -0.0631,-0.288043 -0.198327,-0.396058 -0.135223,-0.117021 -0.369611,-0.117021 -0.252416,0 -0.613011,0.13502 l -0.126208,-0.324049 2.488105,-1.008148 z m 6.319426,0 q 1.875094,0 3.010969,1.422209 0.964591,1.215181 0.964591,2.790413 0,1.107165 -0.531878,2.241332 -0.531877,1.134168 -1.469425,1.710254 -0.928531,0.576085 -2.073421,0.576085 -1.866078,0 -2.965894,-1.48522 -0.928531,-1.251185 -0.928531,-2.808416 0,-1.134168 0.558922,-2.250333 0.567937,-1.125167 1.487453,-1.656245 0.919518,-0.540079 1.947214,-0.540079 z m -0.279461,0.585085 q -0.477789,0 -0.964592,0.288043 -0.477789,0.279041 -0.77528,0.990147 -0.29749,0.711105 -0.29749,1.827271 0,1.800266 0.712174,3.10546 0.721191,1.305193 1.893124,1.305193 0.874444,0 1.442381,-0.720107 0.567937,-0.720107 0.567937,-2.475366 0,-2.196326 -0.946562,-3.456512 -0.640057,-0.864129 -1.631692,-0.864129 z m 7.879003,1.161173 q 1.45139,-1.746258 2.76756,-1.746258 0.67612,0 1.16292,0.34205 0.48681,0.333049 0.77528,1.107164 0.19833,0.540079 0.19833,1.656245 v 3.519521 q 0,0.783116 0.12621,1.062157 0.0992,0.225034 0.31552,0.351052 0.22537,0.126019 0.82035,0.126019 v 0.324047 h -4.08374 v -0.324047 h 0.17129 q 0.57695,0 0.80232,-0.171026 0.23439,-0.180026 0.32453,-0.522077 0.0361,-0.13502 0.0361,-0.846125 v -3.3755 q 0,-1.125167 -0.29749,-1.62924 -0.28848,-0.513077 -0.98262,-0.513077 -1.07277,0 -2.13653,1.170173 v 4.347644 q 0,0.837124 0.0992,1.035153 0.1262,0.261038 0.34256,0.387058 0.22537,0.117021 0.90149,0.117021 v 0.324047 h -4.08374 v -0.324047 h 0.1803 q 0.63104,0 0.8474,-0.315048 0.22537,-0.324047 0.22537,-1.22418 v -3.060457 q 0,-1.48522 -0.0721,-1.809267 -0.0631,-0.324049 -0.20734,-0.441066 -0.13522,-0.117021 -0.36961,-0.117021 -0.25242,0 -0.604,0.13502 l -0.13522,-0.324045 2.48811,-1.008148 h 0.38764 z"
   id="text1"
   style="font-size:14.4238px;font-family:TimesNewRomanPSMT, 'Times New Roman', serif;stroke-width:1.53738"
   aria-label="Addition" /><path
   d="m 68.544948,466.43697 h -3.339916 l -0.397444,0.91902 q -0.195235,0.4595 -0.195235,0.75888 0,0.39684 0.320743,0.58482 0.188263,0.11145 0.927367,0.1671 v 0.2576 h -3.144682 v -0.2576 q 0.509007,-0.0766 0.836723,-0.41774 0.327716,-0.34811 0.808832,-1.42725 l 3.381753,-7.53312 h 0.132481 l 3.409645,7.74198 q 0.488088,1.10004 0.801858,1.38549 0.237072,0.21582 0.669379,0.25064 v 0.2576 h -4.574084 v -0.2576 h 0.188264 q 0.550841,0 0.773967,-0.15318 0.153399,-0.11145 0.153399,-0.32026 0,-0.12538 -0.04183,-0.2576 -0.01395,-0.0626 -0.20918,-0.52217 z m -0.237071,-0.5152 -1.408482,-3.25135 -1.45032,3.25135 z m 7.795465,-3.30705 v 1.47598 q 0.64846,-1.00951 1.136548,-1.33674 0.488088,-0.33419 0.941313,-0.33419 0.390471,0 0.620569,0.24368 0.237071,0.23671 0.237071,0.67534 0,0.46647 -0.230098,0.72407 -0.223127,0.2576 -0.543871,0.2576 -0.369551,0 -0.641486,-0.23672 -0.271935,-0.23671 -0.320744,-0.26456 -0.06972,-0.0418 -0.160372,-0.0418 -0.202208,0 -0.383497,0.15317 -0.28588,0.23671 -0.432307,0.67533 -0.223126,0.67534 -0.223126,1.48992 v 1.49687 l 0.0069,0.38988 q 0,0.39686 0.04881,0.50825 0.08367,0.18798 0.244044,0.27848 0.167345,0.0836 0.557815,0.10442 v 0.25065 h -3.521207 v -0.25065 q 0.425335,-0.0348 0.571761,-0.22974 0.153399,-0.20191 0.153399,-1.0513 v -3.59946 q 0,-0.55699 -0.05578,-0.71015 -0.06972,-0.19495 -0.202208,-0.28545 -0.132481,-0.0905 -0.46717,-0.12538 v -0.25759 z m 5.633932,-3.14692 q 0.446251,0 0.753049,0.31329 0.313772,0.30634 0.313772,0.74497 0,0.44557 -0.313772,0.75887 -0.313771,0.31331 -0.753049,0.31331 -0.43928,0 -0.753051,-0.31331 -0.313771,-0.3133 -0.313771,-0.75887 0,-0.43863 0.306799,-0.74497 0.31377,-0.31329 0.760023,-0.31329 z m 0.976175,3.14692 v 6.73941 q 0,0.94687 -0.118541,1.39941 -0.174317,0.65445 -0.697268,1.05129 -0.515979,0.39686 -1.366647,0.39686 -0.85764,0 -1.269029,-0.34811 -0.404416,-0.34812 -0.404416,-0.84243 0,-0.30635 0.216153,-0.53609 0.209182,-0.2228 0.495061,-0.2228 0.264962,0 0.418361,0.15317 0.153399,0.16013 0.153399,0.47344 0,0.0836 -0.0069,0.19494 -0.01394,0.1462 -0.01394,0.2019 0,0.24368 0.111565,0.36204 0.111565,0.11835 0.285879,0.11835 0.160372,0 0.271936,-0.13925 0.118541,-0.13923 0.118541,-0.39684 0,-0.13925 -0.04184,-0.56394 -0.06972,-0.7728 -0.0767,-0.93293 l -0.02092,-1.65005 v -4.02415 l 0.0069,-0.36204 q 0,-0.43863 -0.153399,-0.59876 -0.146427,-0.16708 -0.627542,-0.21583 v -0.25759 z m 4.852991,-0.19495 q 0.850667,0 1.582799,0.43863 0.732132,0.43862 1.108658,1.24624 0.383497,0.80761 0.383497,1.76839 0,1.38548 -0.704241,2.31842 -0.850669,1.12788 -2.349796,1.12788 -1.471237,0 -2.266123,-1.03041 -0.794886,-1.03041 -0.794886,-2.38804 0,-1.3994 0.808832,-2.43678 0.815804,-1.04433 2.23126,-1.04433 z m 0.02789,0.49432 q -0.355607,0 -0.613596,0.27153 -0.251017,0.26456 -0.33469,1.05825 -0.0767,0.78673 -0.0767,2.1931 0,0.74496 0.09761,1.39244 0.0767,0.49432 0.327717,0.75192 0.251017,0.25761 0.57176,0.25761 0.313771,0 0.522951,-0.17406 0.271936,-0.23671 0.36258,-0.66141 0.139454,-0.66141 0.139454,-2.67349 0,-1.18358 -0.132482,-1.6222 -0.132481,-0.44558 -0.39047,-0.64749 -0.181289,-0.1462 -0.474143,-0.1462 z"
   id="text3"
   style="font-weight:700;font-size:11.1563px;font-family:TimesNewRomanPS-BoldMT, 'Times New Roman', serif;stroke-width:1.18912"
   aria-label="Arjo" /><path
   d="m 16.559601,60.74109 h -3.5925 l -0.4275,0.988512 q -0.21,0.494256 -0.21,0.816272 0,0.426857 0.345,0.629053 0.2025,0.119819 0.9975,0.179729 v 0.277084 h -3.3825 v -0.277084 q 0.5475,-0.08238 0.9,-0.449323 0.3525,-0.374437 0.87,-1.53519 l 3.6375,-8.10281 h 0.1425 l 3.6675,8.327471 q 0.525,1.183221 0.8625,1.490259 0.254999,0.232151 0.72,0.269593 v 0.277084 h -4.92 v -0.277084 h 0.2025 q 0.592499,0 0.832499,-0.164751 0.165001,-0.11982 0.165001,-0.344482 0,-0.134797 -0.045,-0.277083 -0.015,-0.06739 -0.224999,-0.561655 z m -0.255001,-0.554167 -1.514999,-3.497238 -1.56,3.497238 z"
   id="text5"
   aria-label="A"
   style="stroke-width:1.27904" /><path
   d="m 78.496631,58.247341 q 1.4475,0.336994 2.032499,0.816272 0.84,0.681475 0.84,1.767341 0,1.145775 -0.9225,1.894649 -1.132499,0.906137 -3.292499,0.906137 H 71.98663 v -0.277084 q 0.705001,0 0.952501,-0.127309 0.255,-0.134797 0.3525,-0.344481 0.104999,-0.209685 0.104999,-1.033446 v -6.590085 q 0,-0.82376 -0.104999,-1.033445 -0.0975,-0.217174 -0.3525,-0.344482 -0.255,-0.127309 -0.952501,-0.127309 v -0.277083 h 4.875001 q 1.747499,0 2.475,0.314527 0.7275,0.307037 1.1475,0.928602 0.42,0.614077 0.42,1.310529 0,0.733895 -0.5325,1.310527 -0.5325,0.569145 -1.875,0.906138 z M 75.76663,58.045146 q 1.065001,0 1.567501,-0.23964 0.51,-0.239639 0.78,-0.673986 0.27,-0.434347 0.27,-1.108333 0,-0.673985 -0.27,-1.100844 -0.2625,-0.434347 -0.7575,-0.659008 -0.495,-0.224662 -1.590001,-0.217174 z m 0,0.584121 v 3.257598 l -0.0076,0.374437 q 0,0.404392 0.2025,0.614075 0.210001,0.202197 0.615001,0.202197 0.6,0 1.102499,-0.262106 0.51,-0.269594 0.78,-0.771339 0.27,-0.509235 0.27,-1.130799 0,-0.711429 -0.33,-1.273085 -0.33,-0.569143 -0.907499,-0.793805 -0.5775,-0.224663 -1.725001,-0.217173 z"
   id="text7"
   aria-label="B"
   style="stroke-width:1.27904" /><path
   d="m 44.294497,58.060122 h 3.6075 V 54.46553 h 0.9825 v 3.594592 h 3.6075 v 0.988514 h -3.6075 v 3.564636 h -0.9825 v -3.564636 h -3.6075 z"
   id="text9"
   aria-label="+"
   style="stroke-width:1.27904" /><path
   d="M 97.065996,56.861925 H 105.271 v 0.973536 h -8.205004 z m 0,2.448816 H 105.271 v 0.973536 h -8.205004 z"
   id="text11"
   aria-label="="
   style="stroke-width:1.27904" /><path
   d="m 119.68271,55.537629 q 1.44565,-0.05346 2.34695,0.842028 0.90576,0.895489 0.90576,2.240951 0,1.149434 -0.67374,2.022647 -0.89238,1.158346 -2.52096,1.158346 -1.63305,0 -2.52542,-1.104882 -0.70498,-0.873215 -0.70498,-2.071656 0,-1.345462 0.91468,-2.240951 0.91915,-0.899945 2.25771,-0.846483 z m 0.0535,0.285131 q -0.8299,0 -1.26271,0.846482 -0.35248,0.695007 -0.35248,1.995918 0,1.545944 0.54434,2.285502 0.37926,0.516801 1.06193,0.516801 0.45957,0 0.76744,-0.222759 0.39265,-0.285131 0.61128,-0.908856 0.21863,-0.628178 0.21863,-1.635047 0,-1.198442 -0.22309,-1.790979 -0.2231,-0.596993 -0.57112,-0.842028 -0.34357,-0.245034 -0.79422,-0.245034 z m 3.73906,-0.200483 h 3.12331 v 0.164841 h -0.15617 q -0.35249,0 -0.48634,0.07574 -0.1294,0.07128 -0.1874,0.200483 -0.0535,0.1292 -0.0535,0.646 v 2.958235 q 0,0.81084 0.12047,1.073696 0.12493,0.262855 0.40603,0.436607 0.2811,0.173752 0.70944,0.173752 0.4908,0 0.83437,-0.218304 0.34802,-0.222758 0.51757,-0.610358 0.17402,-0.3876 0.17402,-1.349918 v -2.46371 q 0,-0.405421 -0.0847,-0.579172 -0.0847,-0.173752 -0.21417,-0.24058 -0.20078,-0.102463 -0.56666,-0.102463 v -0.164842 h 2.09263 v 0.164842 h -0.12493 q -0.25432,0 -0.42387,0.102463 -0.16956,0.102464 -0.2454,0.307407 -0.058,0.142566 -0.058,0.512345 v 2.294413 q 0,1.064787 -0.14278,1.537035 -0.13832,0.472248 -0.68266,0.868759 -0.54435,0.396511 -1.48581,0.396511 -0.78529,0 -1.21363,-0.209394 -0.5845,-0.285132 -0.82544,-0.730649 -0.24094,-0.445517 -0.24094,-1.19844 V 56.70934 q 0,-0.521254 -0.058,-0.646 -0.058,-0.129199 -0.20079,-0.204938 -0.14278,-0.07574 -0.5265,-0.07128 z m 12.14968,0 v 1.635048 h -0.16063 q -0.14277,-0.565806 -0.31679,-0.810842 -0.17401,-0.249489 -0.47743,-0.396509 -0.16954,-0.0802 -0.59342,-0.0802 h -0.45065 v 4.66011 q 0,0.463338 0.049,0.579173 0.0535,0.115832 0.20079,0.204938 0.15169,0.08465 0.41048,0.08465 h 0.2008 v 0.164841 h -3.16794 v -0.164841 h 0.20078 q 0.26326,0 0.42389,-0.09356 0.11597,-0.06237 0.18294,-0.213848 0.049,-0.106924 0.049,-0.561352 v -4.660111 h -0.43726 q -0.61128,0 -0.88791,0.258401 -0.38819,0.360869 -0.49082,1.029144 h -0.16955 v -1.635047 z"
   id="text13"
   style="font-weight:700;font-size:7.139px;font-family:TimesNewRomanPS-BoldMT, 'Times New Roman', serif;fill:#ffffff;stroke-width:0.760922"
   aria-label="OUT" />
    <defs
   id="defs15">
        <linearGradient
   id="_Linear1"
   x1="0"
   y1="0"
   x2="1"
   y2="0"
   gradientUnits="userSpaceOnUse"
   gradientTransform="matrix(0,380,-380,0,60,0)"><stop
     offset="0"
     style="stop-color:rgb(235,235,235);stop-opacity:1"
     id="stop14" /><stop
     offset="1"
     style="stop-color:rgb(225,225,225);stop-opacity:1"
     id="stop15" /></linearGradient>
        
            
        
        
        
        
        
        
        
        
        
        
        
        
        
        
        
        
        
        
        
        
        
        
        
        
        
    
        
        
        
        
        
        
        
    </defs>
</svg>
