<?xml version="1.0" encoding="UTF-8" standalone="no"?>
<svg
   width="40.639999mm"
   height="128.5mm"
   viewBox="0 0 153.6 485.66933"
   version="1.1"
   xml:space="preserve"
   style="clip-rule:evenodd;fill-rule:evenodd;stroke-linecap:round;stroke-linejoin:round"
   id="svg15"
   xmlns="http://www.w3.org/2000/svg"
   xmlns:svg="http://www.w3.org/2000/svg">
    <rect
   style="clip-rule:evenodd;fill-rule:evenodd;stroke-linecap:round;stroke-linejoin:round;fill:#f2f2f2;stroke-width:1.69304"
   id="rect1"
   width="153.59999"
   height="485.66925"
   x="0"
   y="0" />
    <path
   id="line25"
   d="m 33.3696,426.87775 h 21.888"
   style="fill:none;fill-rule:nonzero;stroke:#1f1f1f;stroke-width:1.02323px" /><path
   id="line27"
   d="m 98.74048,426.87775 h 9.60256"
   style="fill:none;fill-rule:nonzero;stroke:#1f1f1f;stroke-width:1.02323px" /><path
   id="rect29"
   d="m 144.34048,54.752823 v 42.800246 c 0,1.998912 -1.6256,3.622071 -3.62752,3.622071 h -29.29024 c -2.00192,0 -3.62752,-1.623159 -3.62752,-3.622071 V 54.752823 c 0,-1.998913 1.6256,-3.623349 3.62752,-3.623349 h 29.29024 c 2.00192,0 3.62752,1.624436 3.62752,3.623349 z"
   style="fill:#1f1f1f;stroke-width:1.27904" /><path
   id="rect31"
   d="m 144.50432,411.96515 v 29.45584 c 0,1.99891 -1.6256,3.62207 -3.62752,3.62207 h -29.50016 c -2.0032,0 -3.6288,-1.62316 -3.6288,-3.62207 v -29.45584 c 0,-2.00019 1.6256,-3.62335 3.6288,-3.62335 h 29.50016 c 2.00192,0 3.62752,1.62316 3.62752,3.62335 z"
   style="fill:#1f1f1f;stroke-width:1.27904" /><path
   d="M 33.368641,82.902471 H 55.257792"
   style="fill:none;fill-rule:nonzero;stroke:#1f1f1f;stroke-width:1.20553px"
   id="path1" /><path
   id="line35"
   d="m 98.74048,82.902471 h 9.60256"
   style="fill:none;fill-rule:nonzero;stroke:#1f1f1f;stroke-width:1.02323px" /><path
   id="line53"
   d="m 33.3696,377.73441 h 21.888"
   style="fill:none;fill-rule:nonzero;stroke:#1f1f1f;stroke-width:1.02323px" /><path
   id="line55"
   d="m 98.74048,377.73441 h 9.60256"
   style="fill:none;fill-rule:nonzero;stroke:#1f1f1f;stroke-width:1.02323px" /><path
   id="rect57"
   d="m 144.50432,362.82053 v 29.45584 c 0,2.00019 -1.6256,3.62335 -3.62752,3.62335 h -29.50016 c -2.0032,0 -3.6288,-1.62316 -3.6288,-3.62335 v -29.45584 c 0,-1.99892 1.6256,-3.62207 3.6288,-3.62207 h 29.50016 c 2.00192,0 3.62752,1.62315 3.62752,3.62207 z"
   style="fill:#1f1f1f;stroke-width:1.27904" /><path
   id="line67"
   d="m 33.3696,328.58979 h 21.888"
   style="fill:none;fill-rule:nonzero;stroke:#1f1f1f;stroke-width:1.02323px" /><path
   id="line69"
   d="m 98.74048,328.58979 h 9.60256"
   style="fill:none;fill-rule:nonzero;stroke:#1f1f1f;stroke-width:1.02323px" /><path
   id="rect71"
   d="m 144.50432,313.67718 v 29.45585 c 0,2.00019 -1.6256,3.62335 -3.62752,3.62335 h -29.50016 c -2.0032,0 -3.6288,-1.62316 -3.6288,-3.62335 v -29.45585 c 0,-1.99891 1.6256,-3.62334 3.6288,-3.62334 h 29.50016 c 2.00192,0 3.62752,1.62443 3.62752,3.62334 z"
   style="fill:#1f1f1f;stroke-width:1.27904" /><path
   id="line81"
   d="m 33.3696,279.44645 h 21.888"
   style="fill:none;fill-rule:nonzero;stroke:#1f1f1f;stroke-width:1.02323px" /><path
   id="line83"
   d="m 98.74048,279.44645 h 9.60256"
   style="fill:none;fill-rule:nonzero;stroke:#1f1f1f;stroke-width:1.02323px" /><path
   id="rect85"
   d="m 144.50432,264.53384 v 29.45584 c 0,1.99892 -1.6256,3.62208 -3.62752,3.62208 h -29.50016 c -2.0032,0 -3.6288,-1.62316 -3.6288,-3.62208 v -29.45584 c 0,-2.00019 1.6256,-3.62335 3.6288,-3.62335 h 29.50016 c 2.00192,0 3.62752,1.62316 3.62752,3.62335 z"
   style="fill:#1f1f1f;stroke-width:1.27904" /><path
   id="line95"
   d="m 33.3696,230.3031 h 21.888"
   style="fill:none;fill-rule:nonzero;stroke:#1f1f1f;stroke-width:1.02323px" /><path
   id="line97"
   d="m 98.74048,230.3031 h 9.60256"
   style="fill:none;fill-rule:nonzero;stroke:#1f1f1f;stroke-width:1.02323px" /><path
   id="rect99"
   d="m 144.50432,215.3905 v 29.45584 c 0,1.99891 -1.6256,3.62207 -3.62752,3.62207 h -29.50016 c -2.0032,0 -3.6288,-1.62316 -3.6288,-3.62207 V 215.3905 c 0,-2.00019 1.6256,-3.62335 3.6288,-3.62335 h 29.50016 c 2.00192,0 3.62752,1.62316 3.62752,3.62335 z"
   style="fill:#1f1f1f;stroke-width:1.27904" /><path
   id="line109"
   d="m 33.3696,181.15976 h 21.888"
   style="fill:none;fill-rule:nonzero;stroke:#1f1f1f;stroke-width:1.02323px" /><path
   id="line111"
   d="m 98.74048,181.15976 h 9.60256"
   style="fill:none;fill-rule:nonzero;stroke:#1f1f1f;stroke-width:1.02323px" /><path
   id="rect113"
   d="m 144.50432,166.24588 v 29.45584 c 0,2.00019 -1.6256,3.62335 -3.62752,3.62335 h -29.50016 c -2.0032,0 -3.6288,-1.62316 -3.6288,-3.62335 v -29.45584 c 0,-1.99891 1.6256,-3.62207 3.6288,-3.62207 h 29.50016 c 2.00192,0 3.62752,1.62316 3.62752,3.62207 z"
   style="fill:#1f1f1f;stroke-width:1.27904" /><path
   id="line123"
   d="m 33.3696,132.01514 h 21.888"
   style="fill:none;fill-rule:nonzero;stroke:#1f1f1f;stroke-width:1.02323px" /><path
   id="line125"
   d="m 98.74048,132.01514 h 9.60256"
   style="fill:none;fill-rule:nonzero;stroke:#1f1f1f;stroke-width:1.02323px" /><path
   id="rect127"
   d="m 144.50432,117.10254 v 29.45584 c 0,1.99891 -1.6256,3.62335 -3.62752,3.62335 h -29.50016 c -2.0032,0 -3.6288,-1.62444 -3.6288,-3.62335 v -29.45584 c 0,-1.99892 1.6256,-3.62335 3.6288,-3.62335 h 29.50016 c 2.00192,0 3.62752,1.62443 3.62752,3.62335 z"
   style="fill:#1f1f1f;stroke-width:1.27904" />
    <path
   d="m 68.544948,466.43697 h -3.339916 l -0.397444,0.91902 q -0.195235,0.4595 -0.195235,0.75888 0,0.39684 0.320743,0.58482 0.188263,0.11145 0.927367,0.1671 v 0.2576 h -3.144682 v -0.2576 q 0.509007,-0.0766 0.836723,-0.41774 0.327716,-0.34811 0.808832,-1.42725 l 3.381753,-7.53312 h 0.132481 l 3.409645,7.74198 q 0.488088,1.10004 0.801858,1.38549 0.237072,0.21582 0.669379,0.25064 v 0.2576 h -4.574084 v -0.2576 h 0.188264 q 0.550841,0 0.773967,-0.15318 0.153399,-0.11145 0.153399,-0.32026 0,-0.12538 -0.04183,-0.2576 -0.01395,-0.0626 -0.20918,-0.52217 z m -0.237071,-0.5152 -1.408482,-3.25135 -1.45032,3.25135 z m 7.795465,-3.30705 v 1.47598 q 0.64846,-1.00951 1.136548,-1.33674 0.488088,-0.33419 0.941313,-0.33419 0.390471,0 0.620569,0.24368 0.237071,0.23671 0.237071,0.67534 0,0.46647 -0.230098,0.72407 -0.223127,0.2576 -0.543871,0.2576 -0.369551,0 -0.641486,-0.23672 -0.271935,-0.23671 -0.320744,-0.26456 -0.06972,-0.0418 -0.160372,-0.0418 -0.202208,0 -0.383497,0.15317 -0.28588,0.23671 -0.432307,0.67533 -0.223126,0.67534 -0.223126,1.48992 v 1.49687 l 0.0069,0.38988 q 0,0.39686 0.04881,0.50825 0.08367,0.18798 0.244044,0.27848 0.167345,0.0836 0.557815,0.10442 v 0.25065 h -3.521207 v -0.25065 q 0.425335,-0.0348 0.571761,-0.22974 0.153399,-0.20191 0.153399,-1.0513 v -3.59946 q 0,-0.55699 -0.05578,-0.71015 -0.06972,-0.19495 -0.202208,-0.28545 -0.132481,-0.0905 -0.46717,-0.12538 v -0.25759 z m 5.633932,-3.14692 q 0.446251,0 0.753049,0.31329 0.313772,0.30634 0.313772,0.74497 0,0.44557 -0.313772,0.75887 -0.313771,0.31331 -0.753049,0.31331 -0.43928,0 -0.753051,-0.31331 -0.313771,-0.3133 -0.313771,-0.75887 0,-0.43863 0.306799,-0.74497 0.31377,-0.31329 0.760023,-0.31329 z m 0.976175,3.14692 v 6.73941 q 0,0.94687 -0.118541,1.39941 -0.174317,0.65445 -0.697268,1.05129 -0.515979,0.39686 -1.366647,0.39686 -0.85764,0 -1.269029,-0.34811 -0.404416,-0.34812 -0.404416,-0.84243 0,-0.30635 0.216153,-0.53609 0.209182,-0.2228 0.495061,-0.2228 0.264962,0 0.418361,0.15317 0.153399,0.16013 0.153399,0.47344 0,0.0836 -0.0069,0.19494 -0.01394,0.1462 -0.01394,0.2019 0,0.24368 0.111565,0.36204 0.111565,0.11835 0.285879,0.11835 0.160372,0 0.271936,-0.13925 0.118541,-0.13923 0.118541,-0.39684 0,-0.13925 -0.04184,-0.56394 -0.06972,-0.7728 -0.0767,-0.93293 l -0.02092,-1.65005 v -4.02415 l 0.0069,-0.36204 q 0,-0.43863 -0.153399,-0.59876 -0.146427,-0.16708 -0.627542,-0.21583 v -0.25759 z m 4.852991,-0.19495 q 0.850667,0 1.582799,0.43863 0.732132,0.43862 1.108658,1.24624 0.383497,0.80761 0.383497,1.76839 0,1.38548 -0.704241,2.31842 -0.850669,1.12788 -2.349796,1.12788 -1.471237,0 -2.266123,-1.03041 -0.794886,-1.03041 -0.794886,-2.38804 0,-1.3994 0.808832,-2.43678 0.815804,-1.04433 2.23126,-1.04433 z m 0.02789,0.49432 q -0.355607,0 -0.613596,0.27153 -0.251017,0.26456 -0.33469,1.05825 -0.0767,0.78673 -0.0767,2.1931 0,0.74496 0.09761,1.39244 0.0767,0.49432 0.327717,0.75192 0.251017,0.25761 0.57176,0.25761 0.313771,0 0.522951,-0.17406 0.271936,-0.23671 0.36258,-0.66141 0.139454,-0.66141 0.139454,-2.67349 0,-1.18358 -0.132482,-1.6222 -0.132481,-0.44558 -0.39047,-0.64749 -0.181289,-0.1462 -0.474143,-0.1462 z"
   id="text3"
   style="font-weight:700;font-size:11.1563px;font-family:TimesNewRomanPS-BoldMT, 'Times New Roman', serif;stroke-width:1.18912"
   aria-label="Arjo" /><path
   d="m 16.559601,60.74109 h -3.5925 l -0.4275,0.988512 q -0.21,0.494256 -0.21,0.816272 0,0.426857 0.345,0.629053 0.2025,0.119819 0.9975,0.179729 v 0.277084 h -3.3825 v -0.277084 q 0.5475,-0.08238 0.9,-0.449323 0.3525,-0.374437 0.87,-1.53519 l 3.6375,-8.10281 h 0.1425 l 3.6675,8.327471 q 0.525,1.183221 0.8625,1.490259 0.254999,0.232151 0.72,0.269593 v 0.277084 h -4.92 v -0.277084 h 0.2025 q 0.592499,0 0.832499,-0.164751 0.165001,-0.11982 0.165001,-0.344482 0,-0.134797 -0.045,-0.277083 -0.015,-0.06739 -0.224999,-0.561655 z m -0.255001,-0.554167 -1.514999,-3.497238 -1.56,3.497238 z"
   id="text5"
   aria-label="A"
   style="stroke-width:1.27904" /><path
   d="m 78.496631,58.247341 q 1.4475,0.336994 2.032499,0.816272 0.84,0.681475 0.84,1.767341 0,1.145775 -0.9225,1.894649 -1.132499,0.906137 -3.292499,0.906137 H 71.98663 v -0.277084 q 0.705001,0 0.952501,-0.127309 0.255,-0.134797 0.3525,-0.344481 0.104999,-0.209685 0.104999,-1.033446 v -6.590085 q 0,-0.82376 -0.104999,-1.033445 -0.0975,-0.217174 -0.3525,-0.344482 -0.255,-0.127309 -0.952501,-0.127309 v -0.277083 h 4.875001 q 1.747499,0 2.475,0.314527 0.7275,0.307037 1.1475,0.928602 0.42,0.614077 0.42,1.310529 0,0.733895 -0.5325,1.310527 -0.5325,0.569145 -1.875,0.906138 z M 75.76663,58.045146 q 1.065001,0 1.567501,-0.23964 0.51,-0.239639 0.78,-0.673986 0.27,-0.434347 0.27,-1.108333 0,-0.673985 -0.27,-1.100844 -0.2625,-0.434347 -0.7575,-0.659008 -0.495,-0.224662 -1.590001,-0.217174 z m 0,0.584121 v 3.257598 l -0.0076,0.374437 q 0,0.404392 0.2025,0.614075 0.210001,0.202197 0.615001,0.202197 0.6,0 1.102499,-0.262106 0.51,-0.269594 0.78,-0.771339 0.27,-0.509235 0.27,-1.130799 0,-0.711429 -0.33,-1.273085 -0.33,-0.569143 -0.907499,-0.793805 -0.5775,-0.224663 -1.725001,-0.217173 z"
   id="text7"
   aria-label="B"
   style="stroke-width:1.27904" /><path
   d="M 97.065996,56.861925 H 105.271 v 0.973536 h -8.205004 z m 0,2.448816 H 105.271 v 0.973536 h -8.205004 z"
   id="text11"
   aria-label="="
   style="stroke-width:1.27904" /><path
   d="m 119.68271,55.537629 q 1.44565,-0.05346 2.34695,0.842028 0.90576,0.895489 0.90576,2.240951 0,1.149434 -0.67374,2.022647 -0.89238,1.158346 -2.52096,1.158346 -1.63305,0 -2.52542,-1.104882 -0.70498,-0.873215 -0.70498,-2.071656 0,-1.345462 0.91468,-2.240951 0.91915,-0.899945 2.25771,-0.846483 z m 0.0535,0.285131 q -0.8299,0 -1.26271,0.846482 -0.35248,0.695007 -0.35248,1.995918 0,1.545944 0.54434,2.285502 0.37926,0.516801 1.06193,0.516801 0.45957,0 0.76744,-0.222759 0.39265,-0.285131 0.61128,-0.908856 0.21863,-0.628178 0.21863,-1.635047 0,-1.198442 -0.22309,-1.790979 -0.2231,-0.596993 -0.57112,-0.842028 -0.34357,-0.245034 -0.79422,-0.245034 z m 3.73906,-0.200483 h 3.12331 v 0.164841 h -0.15617 q -0.35249,0 -0.48634,0.07574 -0.1294,0.07128 -0.1874,0.200483 -0.0535,0.1292 -0.0535,0.646 v 2.958235 q 0,0.81084 0.12047,1.073696 0.12493,0.262855 0.40603,0.436607 0.2811,0.173752 0.70944,0.173752 0.4908,0 0.83437,-0.218304 0.34802,-0.222758 0.51757,-0.610358 0.17402,-0.3876 0.17402,-1.349918 v -2.46371 q 0,-0.405421 -0.0847,-0.579172 -0.0847,-0.173752 -0.21417,-0.24058 -0.20078,-0.102463 -0.56666,-0.102463 v -0.164842 h 2.09263 v 0.164842 h -0.12493 q -0.25432,0 -0.42387,0.102463 -0.16956,0.102464 -0.2454,0.307407 -0.058,0.142566 -0.058,0.512345 v 2.294413 q 0,1.064787 -0.14278,1.537035 -0.13832,0.472248 -0.68266,0.868759 -0.54435,0.396511 -1.48581,0.396511 -0.78529,0 -1.21363,-0.209394 -0.5845,-0.285132 -0.82544,-0.730649 -0.24094,-0.445517 -0.24094,-1.19844 V 56.70934 q 0,-0.521254 -0.058,-0.646 -0.058,-0.129199 -0.20079,-0.204938 -0.14278,-0.07574 -0.5265,-0.07128 z m 12.14968,0 v 1.635048 h -0.16063 q -0.14277,-0.565806 -0.31679,-0.810842 -0.17401,-0.249489 -0.47743,-0.396509 -0.16954,-0.0802 -0.59342,-0.0802 h -0.45065 v 4.66011 q 0,0.463338 0.049,0.579173 0.0535,0.115832 0.20079,0.204938 0.15169,0.08465 0.41048,0.08465 h 0.2008 v 0.164841 h -3.16794 v -0.164841 h 0.20078 q 0.26326,0 0.42389,-0.09356 0.11597,-0.06237 0.18294,-0.213848 0.049,-0.106924 0.049,-0.561352 v -4.660111 h -0.43726 q -0.61128,0 -0.88791,0.258401 -0.38819,0.360869 -0.49082,1.029144 h -0.16955 v -1.635047 z"
   id="text13"
   style="font-weight:700;font-size:7.139px;font-family:TimesNewRomanPS-BoldMT, 'Times New Roman', serif;fill:#ffffff;stroke-width:0.760922"
   aria-label="OUT" />
    <defs
   id="defs15">
        <linearGradient
   id="_Linear1"
   x1="0"
   y1="0"
   x2="1"
   y2="0"
   gradientUnits="userSpaceOnUse"
   gradientTransform="matrix(0,380,-380,0,60,0)"><stop
     offset="0"
     style="stop-color:rgb(235,235,235);stop-opacity:1"
     id="stop14" /><stop
     offset="1"
     style="stop-color:rgb(225,225,225);stop-opacity:1"
     id="stop15" /></linearGradient>
        
            
        
        
        
        
        
        
        
        
        
        
        
        
        
        
        
        
        
        
        
        
        
        
        
        
        
    
        
        
        
        
        
        
        
    </defs>
<path
   d="m 43.354557,17.440965 v 4.068369 h -0.320959 q -0.156142,-1.171066 -0.563847,-1.865031 -0.399029,-0.693964 -1.145042,-1.101669 -0.746012,-0.407704 -1.544071,-0.407704 -0.902154,0 -1.492025,0.555172 -0.58987,0.546497 -0.58987,1.249136 0,0.537823 0.373006,0.980226 0.537823,0.650592 2.558996,1.734912 1.648166,0.884805 2.246711,1.361906 0.607219,0.468426 0.928178,1.110343 0.329633,0.641918 0.329633,1.344557 0,1.335882 -1.040947,2.307433 -1.032273,0.962876 -2.66309,0.962876 -0.511799,0 -0.962876,-0.07807 -0.268912,-0.04337 -1.119019,-0.312284 -0.841432,-0.277586 -1.066971,-0.277586 -0.216864,0 -0.346982,0.130119 -0.121444,0.130118 -0.182166,0.537822 h -0.320958 v -4.03367 h 0.320958 q 0.225539,1.266486 0.60722,1.899729 0.38168,0.624568 1.162391,1.040947 0.789385,0.416379 1.726237,0.416379 1.08432,0 1.708888,-0.572521 0.633243,-0.572521 0.633243,-1.353232 0,-0.433728 -0.242887,-0.87613 -0.234214,-0.442403 -0.737338,-0.824083 -0.338308,-0.260237 -1.847681,-1.10167 -1.509374,-0.850107 -2.151291,-1.353231 -0.633243,-0.503124 -0.962876,-1.110344 -0.329634,-0.607219 -0.329634,-1.335882 0,-1.266486 0.971551,-2.177315 0.971551,-0.919503 2.47225,-0.919503 0.936852,0 1.986474,0.459752 0.485775,0.216864 0.68529,0.216864 0.225539,0 0.364332,-0.130119 0.147467,-0.138793 0.234213,-0.546497 z m 9.255756,4.085718 v 4.814381 q 0,1.379255 0.06072,1.691539 0.0694,0.30361 0.20819,0.425053 0.147467,0.121444 0.338308,0.121444 0.268911,0 0.607219,-0.147467 l 0.121444,0.303609 -2.37683,0.980226 H 51.17901 v -1.682865 q -1.023598,1.110344 -1.561421,1.396604 -0.537822,0.286261 -1.136367,0.286261 -0.667941,0 -1.162391,-0.381681 -0.485775,-0.390355 -0.676616,-0.997574 -0.19084,-0.60722 -0.19084,-1.717563 v -3.547895 q 0,-0.563847 -0.121444,-0.780711 Q 46.208487,22.07318 45.9656,21.960411 45.731386,21.838967 45.106818,21.847642 v -0.320959 h 2.784534 v 5.317505 q 0,1.110344 0.381681,1.457326 0.390355,0.346983 0.936852,0.346983 0.373006,0 0.841432,-0.234213 0.477101,-0.234214 1.127693,-0.89348 v -4.502097 q 0,-0.676615 -0.251562,-0.910829 -0.242888,-0.242887 -1.023598,-0.260236 v -0.320959 z m 4.094391,1.37058 q 1.153716,-1.604793 2.489599,-1.604793 1.223113,0 2.133942,1.049622 0.910828,1.040947 0.910828,2.85393 0,2.116592 -1.405278,3.409102 -1.205764,1.110344 -2.689114,1.110344 -0.693965,0 -1.413953,-0.251563 -0.711314,-0.251562 -1.457326,-0.754686 v -8.232158 q 0,-1.353231 -0.0694,-1.665515 -0.06072,-0.312285 -0.199515,-0.425054 -0.138793,-0.112769 -0.346982,-0.112769 -0.242888,0 -0.607219,0.138793 l -0.121444,-0.30361 2.385504,-0.971551 h 0.390355 z m 0,0.555172 v 4.753659 q 0.442403,0.433728 0.910829,0.659267 0.477101,0.216864 0.971551,0.216864 0.789385,0 1.466,-0.867456 0.68529,-0.867456 0.68529,-2.524297 0,-1.526723 -0.68529,-2.342131 -0.676615,-0.824084 -1.544072,-0.824084 -0.459751,0 -0.919503,0.234213 -0.346982,0.173492 -0.884805,0.693965 z m 9.01287,-4.536795 v 2.611043 h 1.856356 v 0.607219 h -1.856356 v 5.152689 q 0,0.772036 0.216864,1.040947 0.225538,0.268911 0.572521,0.268911 0.28626,0 0.555172,-0.173491 0.268911,-0.182166 0.416379,-0.529148 h 0.338307 q -0.303609,0.850107 -0.858781,1.283835 -0.555172,0.425053 -1.145042,0.425053 -0.39903,0 -0.78071,-0.216864 -0.381681,-0.225538 -0.563847,-0.633243 -0.182166,-0.416378 -0.182166,-1.27516 V 22.133902 H 63.02846 v -0.28626 q 0.477101,-0.190841 0.971551,-0.641918 0.503124,-0.459752 0.89348,-1.08432 0.199515,-0.329633 0.555171,-1.205764 z m 4.953174,2.37683 v 1.786959 q 0.997575,-1.786959 2.047197,-1.786959 0.4771,0 0.789384,0.294935 0.312285,0.28626 0.312285,0.667941 0,0.338308 -0.225539,0.572521 -0.225538,0.234213 -0.537823,0.234213 -0.303609,0 -0.68529,-0.294935 -0.373006,-0.30361 -0.555172,-0.30361 -0.156142,0 -0.338308,0.173492 -0.390355,0.355657 -0.806734,1.171065 v 3.808132 q 0,0.659267 0.164817,0.997575 0.112769,0.234213 0.39903,0.390355 0.28626,0.156142 0.824083,0.156142 v 0.312284 h -4.068369 v -0.312284 q 0.607219,0 0.902155,-0.190841 0.216864,-0.138792 0.303609,-0.442402 0.04337,-0.147468 0.04337,-0.841432 v -3.079469 q 0,-1.38793 -0.06072,-1.648167 -0.05205,-0.268911 -0.208189,-0.390355 -0.147468,-0.121444 -0.373007,-0.121444 -0.268911,0 -0.607219,0.130119 l -0.08674,-0.312284 2.402853,-0.971551 z m 8.093365,7.035068 q -1.223113,0.945527 -1.535397,1.092995 -0.468427,0.216864 -0.997575,0.216864 -0.824083,0 -1.361906,-0.563847 -0.529148,-0.563846 -0.529148,-1.48335 0,-0.581195 0.260237,-1.006249 0.355657,-0.58987 1.231788,-1.110343 0.884805,-0.520474 2.932001,-1.266486 v -0.312284 q 0,-1.188415 -0.381681,-1.630817 -0.373006,-0.442403 -1.092994,-0.442403 -0.546498,0 -0.867456,0.294935 -0.329634,0.294935 -0.329634,0.676616 l 0.01735,0.503124 q 0,0.39903 -0.208189,0.615894 -0.199515,0.216864 -0.529148,0.216864 -0.320959,0 -0.529148,-0.225539 -0.199515,-0.225538 -0.199515,-0.615893 0,-0.746013 0.763361,-1.370581 0.763361,-0.624568 2.142616,-0.624568 1.058297,0 1.734912,0.355657 0.5118,0.268911 0.754687,0.841432 0.156142,0.373006 0.156142,1.526723 v 2.697788 q 0,1.136367 0.04337,1.396604 0.04337,0.251562 0.138793,0.338308 0.104095,0.08675 0.234213,0.08675 0.138793,0 0.242888,-0.06072 0.182166,-0.11277 0.702639,-0.633243 v 0.485775 q -0.97155,1.301184 -1.856356,1.301184 -0.425053,0 -0.676615,-0.294935 -0.251563,-0.294935 -0.260237,-1.006249 z m 0,-0.563846 V 24.73627 q -1.309859,0.520474 -1.691539,0.737338 -0.685291,0.38168 -0.980226,0.798059 -0.294935,0.416379 -0.294935,0.910829 0,0.624568 0.373006,1.040947 0.373006,0.407705 0.858782,0.407705 0.659266,0 1.734912,-0.867456 z m 10.131885,-1.309859 q -0.320959,1.570095 -1.257811,2.420202 -0.936853,0.841433 -2.07322,0.841433 -1.353232,0 -2.359481,-1.136368 -1.006249,-1.136367 -1.006249,-3.070794 0,-1.873705 1.110344,-3.044771 1.119018,-1.171065 2.680439,-1.171065 1.171066,0 1.925752,0.624568 0.754687,0.615894 0.754687,1.283835 0,0.329633 -0.216864,0.537823 -0.208189,0.199515 -0.58987,0.199515 -0.511799,0 -0.772036,-0.329634 -0.147467,-0.182165 -0.199515,-0.693964 -0.04337,-0.5118 -0.346982,-0.780711 -0.30361,-0.260237 -0.841432,-0.260237 -0.867456,0 -1.396605,0.641918 -0.702639,0.850107 -0.702639,2.246711 0,1.422628 0.693965,2.515622 0.702639,1.08432 1.891054,1.08432 0.850107,0 1.526723,-0.581195 0.4771,-0.39903 0.928178,-1.448652 z m 3.443799,-7.538193 v 2.611043 h 1.856356 v 0.607219 h -1.856356 v 5.152689 q 0,0.772036 0.216864,1.040947 0.225538,0.268911 0.572521,0.268911 0.28626,0 0.555172,-0.173491 0.268911,-0.182166 0.416378,-0.529148 h 0.338308 q -0.303609,0.850107 -0.858781,1.283835 -0.555172,0.425053 -1.145042,0.425053 -0.39903,0 -0.78071,-0.216864 -0.381681,-0.225538 -0.563847,-0.633243 -0.182166,-0.416378 -0.182166,-1.27516 v -5.343529 h -1.257811 v -0.28626 q 0.477101,-0.190841 0.971551,-0.641918 0.503124,-0.459752 0.89348,-1.08432 0.199514,-0.329633 0.555171,-1.205764 z m 4.649565,-1.778285 q 0.364331,0 0.615893,0.260237 0.260237,0.251563 0.260237,0.615894 0,0.364332 -0.260237,0.624568 -0.251562,0.260237 -0.615893,0.260237 -0.364332,0 -0.624569,-0.260237 -0.260237,-0.260236 -0.260237,-0.624568 0,-0.364331 0.251563,-0.615894 0.260237,-0.260237 0.633243,-0.260237 z m 0.719988,4.155115 v 6.384476 q 0,0.746012 0.104095,0.997574 0.112769,0.242888 0.320959,0.364332 0.216864,0.121444 0.78071,0.121444 v 0.312284 h -3.860179 v -0.312284 q 0.581195,0 0.78071,-0.112769 0.199515,-0.11277 0.312284,-0.373007 0.121444,-0.260236 0.121444,-0.997574 v -3.06212 q 0,-1.292509 -0.07807,-1.67419 -0.06072,-0.277586 -0.19084,-0.38168 -0.130119,-0.11277 -0.355657,-0.11277 -0.242888,0 -0.58987,0.130119 l -0.121444,-0.312284 2.394178,-0.971551 z m 6.08087,0 q 1.80431,0 2.8973,1.37058 0.92818,1.171066 0.92818,2.689114 0,1.066971 -0.5118,2.159965 -0.5118,1.092995 -1.41395,1.648167 -0.89348,0.555172 -1.99515,0.555172 -1.79563,0 -2.85393,-1.431303 -0.893479,-1.205764 -0.893479,-2.706463 0,-1.092994 0.537819,-2.16864 0.5465,-1.08432 1.43131,-1.596119 0.8848,-0.520473 1.8737,-0.520473 z m -0.26891,0.563846 q -0.45975,0 -0.92818,0.277586 -0.45975,0.268911 -0.74601,0.954202 -0.28626,0.68529 -0.28626,1.760935 0,1.734912 0.68529,2.992724 0.69396,1.257811 1.82166,1.257811 0.84143,0 1.38793,-0.693965 0.54649,-0.693965 0.54649,-2.385504 0,-2.116593 -0.91082,-3.331031 -0.6159,-0.832758 -1.5701,-0.832758 z m 7.58156,1.119018 q 1.3966,-1.682864 2.66309,-1.682864 0.65059,0 1.11902,0.329633 0.46842,0.320959 0.74601,1.066971 0.19084,0.520474 0.19084,1.596119 v 3.391753 q 0,0.754687 0.12144,1.023598 0.0954,0.216864 0.30361,0.338308 0.21687,0.121444 0.78939,0.121444 v 0.312284 h -3.92958 v -0.312284 h 0.16482 q 0.55517,0 0.77204,-0.164817 0.22553,-0.173491 0.31228,-0.503124 0.0347,-0.130119 0.0347,-0.815409 v -3.25296 q 0,-1.08432 -0.28626,-1.570095 -0.27759,-0.49445 -0.94553,-0.49445 -1.03227,0 -2.05587,1.127692 v 4.189813 q 0,0.806734 0.0954,0.997574 0.12144,0.251563 0.32963,0.373007 0.21687,0.112769 0.86746,0.112769 v 0.312284 h -3.92958 v -0.312284 h 0.17349 q 0.60722,0 0.81541,-0.30361 0.21687,-0.312284 0.21687,-1.17974 v -2.94935 q 0,-1.431303 -0.0694,-1.743587 -0.0607,-0.312284 -0.19951,-0.425053 -0.13012,-0.11277 -0.35566,-0.11277 -0.24289,0 -0.5812,0.130119 l -0.13012,-0.312284 2.39418,-0.971551 h 0.37301 z"
   id="text2"
   style="font-size:17.7655px;font-family:'Times New Roman';-inkscape-font-specification:'Times New Roman, ';fill:#1a1a1a;stroke-width:1.48046"
   aria-label="Subtraction" /><path
   d="m 47.975956,58.007153 h 3.029297 v 0.884765 h -3.029297 z"
   id="text4"
   style="font-family:'Times New Roman';-inkscape-font-specification:'Times New Roman, ';fill:#1a1a1a"
   aria-label="-" /></svg>
